<svg xmlns="http://www.w3.org/2000/svg" version="1.1" xmlns:xlink="http://www.w3.org/1999/xlink" xmlns:svgjs="http://svgjs.dev/svgjs" width="1000" height="1125" viewBox="0 0 1000 1125"><g transform="matrix(1,0,0,1,0.0011008540699322111,0)"><svg viewBox="0 0 320 360" data-background-color="#000000" preserveAspectRatio="xMidYMid meet" height="1125" width="1000" xmlns="http://www.w3.org/2000/svg" xmlns:xlink="http://www.w3.org/1999/xlink"><g id="tight-bounds" transform="matrix(1,0,0,1,0.00010353528136874957,0)"><svg viewBox="0 0 320 360" height="360" width="320"><g><svg></svg></g><g><svg viewBox="0 0 320 360" height="360" width="320"><g><path d="M307.925 179.999l6.575-11.387c11.322-19.607 4.604-44.679-15.003-56.001l-11.387-6.575v-13.151c0-22.639-18.354-40.994-40.994-40.994h-13.151l-6.575-11.387c-11.322-19.607-36.393-26.325-56.001-15.003l-11.39 6.572-11.387-6.576c-19.607-11.318-44.679-4.6-56.001 15.007l-6.575 11.387h-13.151c-22.639 0-40.994 18.354-40.994 40.994v13.151l-11.387 6.575c-19.607 11.322-26.325 36.393-15.003 56.001l6.572 11.387-6.576 11.387c-11.318 19.607-4.6 44.679 15.007 56l11.387 6.576v13.15c0 22.639 18.354 40.994 40.994 40.994h13.151l6.575 11.387c11.322 19.607 36.393 26.325 56.001 15.003l11.387-6.571 11.387 6.575c19.607 11.322 44.679 4.604 56-15.003l6.576-11.387h13.15c22.639 0 40.994-18.354 40.994-40.994v-13.151l11.387-6.575c19.607-11.322 26.325-36.393 15.003-56.001zM297.702 115.716c8.655 4.996 14.842 13.062 17.428 22.713 2.586 9.65 1.261 19.734-3.735 28.384l-5.538 9.596-17.747-30.74v-35.494zM251.155 271.155l-57.791 33.365h-66.731l-57.791-33.365-33.365-57.791v-66.731l33.365-57.791 57.791-33.365h66.731l57.791 33.365 33.365 57.791v66.731zM284.517 220.539v31.351l-27.151 15.676zM247.566 277.366l-15.676 27.151h-31.351zM187.15 308.106l-27.151 15.676-27.151-15.676zM119.459 304.517h-31.352l-15.676-27.151zM62.632 267.566l-27.151-15.676v-31.351zM31.891 207.15l-15.675-27.151 15.675-27.151zM35.481 139.459v-31.352l27.151-15.676zM72.431 82.632l15.676-27.151h31.352zM132.848 51.891l27.151-15.675 27.151 15.675zM200.539 55.481h31.351l15.676 27.151zM257.366 92.431l27.151 15.676v31.352zM288.106 152.848l15.676 27.151-15.676 27.151zM247.112 55.481c9.992 0 19.384 3.889 26.452 10.956 7.063 7.063 10.956 16.46 10.957 26.452v11.079l-30.741-17.747-17.747-30.74zM173.18 28.606c8.655-4.996 18.735-6.322 28.385-3.735 9.65 2.586 17.716 8.777 22.712 17.428l5.538 9.596h-35.494l-30.741-17.747zM95.716 42.295c4.996-8.655 13.062-14.842 22.713-17.428 9.65-2.586 19.734-1.261 28.384 3.736l9.596 5.537-30.74 17.747h-35.494zM35.481 92.885c0-9.992 3.889-19.384 10.956-26.452 7.063-7.063 16.46-10.956 26.452-10.956h11.079l-17.747 30.74-30.74 17.747zM8.606 166.817c-4.996-8.655-6.322-18.735-3.735-28.385 2.586-9.65 8.777-17.716 17.428-22.712l9.596-5.538v35.495l-17.747 30.74zM22.295 244.281c-8.655-4.996-14.842-13.062-17.428-22.712-2.586-9.65-1.261-19.734 3.736-28.385l5.537-9.596 17.747 30.74v35.495zM72.885 304.517c-9.992 0-19.384-3.889-26.452-10.957-7.063-7.063-10.956-16.46-10.956-26.451v-11.08l30.74 17.747 17.747 30.741zM146.817 331.391c-8.655 4.996-18.735 6.322-28.385 3.735-9.65-2.586-17.716-8.777-22.712-17.428l-5.538-9.596h35.495l30.74 17.747zM224.281 317.702c-4.996 8.655-13.062 14.842-22.712 17.428-9.65 2.586-19.734 1.261-28.385-3.735l-9.596-5.538 30.74-17.747h35.495zM284.517 267.112c0 9.992-3.889 19.384-10.957 26.452-7.063 7.063-16.46 10.956-26.451 10.957h-11.08l17.747-30.741 30.741-17.747zM315.13 221.565c-2.586 9.65-8.777 17.716-17.428 22.712l-9.596 5.538v-35.494l17.747-30.741 5.538 9.596c4.996 8.658 6.326 18.739 3.739 28.389z" fill="#004f95" fill-rule="nonzero" stroke="none" stroke-width="1" stroke-linecap="butt" stroke-linejoin="miter" stroke-miterlimit="10" stroke-dasharray="" stroke-dashoffset="0" font-family="none" font-weight="none" font-size="none" text-anchor="none" style="mix-blend-mode: normal" data-fill-palette-color="tertiary"></path></g><g transform="matrix(1,0,0,1,64,133.57009345794393)"><svg viewBox="0 0 192 92.85981308411215" height="92.85981308411215" width="192"><g><svg viewBox="0 0 192 92.85981308411215" height="92.85981308411215" width="192"><g><svg viewBox="0 0 192 92.85981308411215" height="92.85981308411215" width="192"><g><svg viewBox="0 0 192 92.85981308411215" height="92.85981308411215" width="192"><g id="textblocktransform"><svg viewBox="0 0 192 92.85981308411215" height="92.85981308411215" width="192" id="textblock"><g><svg viewBox="0 0 192 92.85981308411215" height="92.85981308411215" width="192"><g transform="matrix(1,0,0,1,0,0)"><svg width="192" viewBox="2.27 -40.43 83.59 40.43" height="92.85981308411215" data-palette-color="#0074dc"><path d="M15.55-18.36L15.55-20.12 26.15-20.12Q28.56-20.12 30.24-21.68 31.91-23.24 31.91-26.12L31.91-26.12Q31.91-28.25 30.15-29.94 28.39-31.64 26.15-31.64L26.15-31.64 11.06-31.64 11.06 0 9.3 0 9.3-33.4 26.15-33.4Q29.13-33.4 31.4-31.19 33.67-28.98 33.67-26.12L33.67-26.12Q33.67-22.61 31.47-20.48 29.27-18.36 26.15-18.36L26.15-18.36 15.55-18.36ZM15.55-14.84L15.55-16.6 26.15-16.6Q29.96-16.6 32.69-19.27 35.42-21.95 35.42-26.12L35.42-26.12Q35.42-29.71 32.63-32.43 29.83-35.16 26.15-35.16L26.15-35.16 7.54-35.16 7.54 0 5.79 0 5.79-36.91 26.15-36.91Q29.05-36.91 31.6-35.42 34.16-33.94 35.67-31.43 37.18-28.93 37.18-26.12L37.18-26.12Q37.18-21.31 33.92-18.08 30.66-14.84 26.15-14.84L26.15-14.84 15.55-14.84ZM15.55-11.33L15.55-13.09 26.15-13.09Q29.57-13.09 32.5-14.77 35.42-16.46 37.18-19.47 38.94-22.49 38.94-26.12L38.94-26.12Q38.94-29.42 37.19-32.31 35.45-35.21 32.5-36.94 29.54-38.67 26.15-38.67L26.15-38.67 4.03-38.67 4.03 0 2.27 0 2.27-40.43 26.15-40.43Q29.98-40.43 33.35-38.46 36.72-36.5 38.71-33.19 40.7-29.88 40.7-26.12L40.7-26.12Q40.7-21.78 38.83-18.48 36.96-15.19 33.76-13.33L33.76-13.33 38.31 0 36.45 0 32.1-12.5Q31.13-12.11 30.62-11.96L30.62-11.96 34.69 0 32.84 0 28.86-11.55Q28.64-11.5 27.29-11.38L27.29-11.38 31.08 0 29.22 0 25.49-11.33 23.9-11.33 27.47 0 25.61 0 22.02-11.33 15.55-11.33ZM14.58-28.13L14.58 0 12.82 0 12.82-29.88 26.15-29.88Q27.78-29.88 28.97-28.77 30.15-27.66 30.15-26.12L30.15-26.12Q30.15-21.88 26.15-21.88L26.15-21.88 15.55-21.88 15.55-23.63 26.15-23.63Q27.2-23.63 27.8-24.18 28.39-24.73 28.39-26.12L28.39-26.12Q28.39-26.98 27.75-27.55 27.1-28.13 26.15-28.13L26.15-28.13 14.58-28.13ZM73.56 0L73.56-14.75 75.31-18.07 75.31 0 73.56 0ZM77.07 0L77.07-21.48 78.83-24.8 78.83 0 77.07 0ZM80.59 0L80.59-28.13 82.35-31.47 82.35 0 80.59 0ZM81.88-40.43L68.8-15.58 67.8-17.41 79.9-40.43 81.88-40.43ZM77.9-40.43L66.77-19.41 65.74-21.26 75.9-40.43 77.9-40.43ZM55 0L55-17.87 56.76-14.55 56.76 0 55 0ZM51.49 0L51.49-24.56 53.24-21.24 53.24 0 51.49 0ZM47.97 0L47.97-31.25 49.73-27.91 49.73 0 47.97 0ZM46.43-40.43L62.18-10.55 60.2-10.55 46.21-37.08 46.21 0 44.46 0 44.46-40.43 46.43-40.43ZM50.44-40.43L66.16-10.55 64.16-10.55 48.44-40.43 50.44-40.43ZM84.1 0L84.1-37.08 70.11-10.55 68.11-10.55 52.41-40.43 54.39-40.43 69.14-12.4 83.86-40.43 85.86-40.43 85.86 0 84.1 0Z" opacity="1" transform="matrix(1,0,0,1,0,0)" fill="#0074dc" class="wordmark-text-0" data-fill-palette-color="primary" id="text-0"></path></svg></g></svg></g></svg></g></svg></g><g></g></svg></g></svg></g></svg></g></svg></g><defs></defs></svg><rect width="320" height="360" fill="none" stroke="none" visibility="hidden"></rect></g></svg></g></svg>